{
	"asset":{
		"version":"2.0",
		"generator":"Created using the official Cinema 4D glTF Exporter 1.000x284978"
	},
	"scenes":[{
		"nodes":[0,
		1,
		2,
		3,
		4,
		5,
		6,
		7,
		8,
		9,
		10,
		11,
		12]
	}],
	"nodes":[{
		"name":"Platonic.1",
		"translation":[26.63835334777832,
		0.0,
		-64.98526763916016],
		"rotation":[0.0,
		0.0,
		0.0,
		-1.0],
		"scale":[1.0,
		1.0,
		1.0],
		"mesh":0
	},
	{
		"name":"Platonic",
		"translation":[-110.12677001953125,
		0.0,
		40.15821075439453],
		"rotation":[0.0,
		0.0,
		0.0,
		-1.0],
		"scale":[1.0,
		1.0,
		1.0],
		"mesh":1
	},
	{
		"name":"Pyramid.10",
		"translation":[-102.14249420166016,
		-24.113069534301759,
		-80.03094482421875],
		"rotation":[0.015674615278840066,
		-0.707916796207428,
		0.015718353912234308,
		0.7059469223022461],
		"scale":[1.0,
		1.0,
		1.0],
		"mesh":2
	},
	{
		"name":"Pyramid.9",
		"translation":[-164.353271484375,
		-16.585309982299806,
		-43.97371292114258],
		"rotation":[0.015674615278840066,
		-0.707916796207428,
		0.015718353912234308,
		0.7059469223022461],
		"scale":[1.0,
		1.0,
		1.0],
		"mesh":3
	},
	{
		"name":"Pyramid.8",
		"translation":[-64.22843170166016,
		-23.31903648376465,
		-145.37445068359376],
		"rotation":[0.015674615278840066,
		-0.707916796207428,
		0.015718353912234308,
		0.7059469223022461],
		"scale":[1.0,
		1.0,
		1.0],
		"mesh":4
	},
	{
		"name":"Pyramid.7",
		"translation":[-64.88226318359375,
		-23.31903648376465,
		89.26443481445313],
		"rotation":[0.015674615278840066,
		-0.707916796207428,
		0.015718353912234308,
		0.7059469223022461],
		"scale":[1.0,
		1.0,
		1.0],
		"mesh":5
	},
	{
		"name":"Pyramid.6",
		"translation":[95.34040832519531,
		-21.297475814819337,
		189.6601104736328],
		"rotation":[0.015674615278840066,
		-0.707916796207428,
		0.015718353912234308,
		0.7059469223022461],
		"scale":[1.0,
		1.0,
		1.0],
		"mesh":6
	},
	{
		"name":"Pyramid.5",
		"translation":[94.37446594238281,
		17.90511703491211,
		-88.7547836303711],
		"rotation":[0.015674615278840066,
		-0.707916796207428,
		0.015718353912234308,
		0.7059469223022461],
		"scale":[1.0,
		1.0,
		1.0],
		"mesh":7
	},
	{
		"name":"Pyramid.4",
		"translation":[97.63526916503906,
		-16.43495750427246,
		54.07156753540039],
		"rotation":[0.015674615278840066,
		-0.707916796207428,
		0.015718353912234308,
		0.7059469223022461],
		"scale":[1.0,
		1.0,
		1.0],
		"mesh":8
	},
	{
		"name":"Pyramid.3",
		"translation":[102.52786254882813,
		-15.881102561950684,
		89.73092651367188],
		"rotation":[0.015674615278840066,
		-0.707916796207428,
		0.015718353912234308,
		0.7059469223022461],
		"scale":[1.0,
		1.0,
		1.0],
		"mesh":9
	},
	{
		"name":"Pyramid.2",
		"translation":[-0.15973636507987977,
		-7.990390777587891,
		89.44478607177735],
		"rotation":[0.015674615278840066,
		-0.707916796207428,
		0.015718353912234308,
		0.7059469223022461],
		"scale":[1.0,
		1.0,
		1.0],
		"mesh":10
	},
	{
		"name":"Pyramid.1",
		"translation":[45.69626998901367,
		-11.692875862121582,
		0.1273338347673416],
		"rotation":[0.015674615278840066,
		-0.707916796207428,
		0.015718353912234308,
		0.7059469223022461],
		"scale":[1.0,
		1.0,
		1.0],
		"mesh":11
	},
	{
		"name":"Pyramid",
		"translation":[-46.0806999206543,
		11.692875862121582,
		137.8330535888672],
		"rotation":[0.015674615278840066,
		-0.707916796207428,
		0.015718353912234308,
		0.7059469223022461],
		"scale":[1.0,
		1.0,
		1.0],
		"mesh":12
	}],
	"meshes":[{
		"name":"Platonic.1",
		"primitives":[{
			"attributes":{
				"POSITION":1,
				"NORMAL":2,
				"TEXCOORD_0":3
			},
			"indices":0,
			"material":0
		}]
	},
	{
		"name":"Platonic",
		"primitives":[{
			"attributes":{
				"POSITION":5,
				"NORMAL":6,
				"TEXCOORD_0":7
			},
			"indices":4,
			"material":0
		}]
	},
	{
		"name":"Pyramid.10",
		"primitives":[{
			"attributes":{
				"POSITION":9,
				"NORMAL":10,
				"TEXCOORD_0":11
			},
			"indices":8,
			"material":1
		}]
	},
	{
		"name":"Pyramid.9",
		"primitives":[{
			"attributes":{
				"POSITION":13,
				"NORMAL":14,
				"TEXCOORD_0":15
			},
			"indices":12,
			"material":1
		}]
	},
	{
		"name":"Pyramid.8",
		"primitives":[{
			"attributes":{
				"POSITION":17,
				"NORMAL":18,
				"TEXCOORD_0":19
			},
			"indices":16,
			"material":1
		}]
	},
	{
		"name":"Pyramid.7",
		"primitives":[{
			"attributes":{
				"POSITION":21,
				"NORMAL":22,
				"TEXCOORD_0":23
			},
			"indices":20,
			"material":1
		}]
	},
	{
		"name":"Pyramid.6",
		"primitives":[{
			"attributes":{
				"POSITION":25,
				"NORMAL":26,
				"TEXCOORD_0":27
			},
			"indices":24,
			"material":1
		}]
	},
	{
		"name":"Pyramid.5",
		"primitives":[{
			"attributes":{
				"POSITION":29,
				"NORMAL":30,
				"TEXCOORD_0":31
			},
			"indices":28,
			"material":1
		}]
	},
	{
		"name":"Pyramid.4",
		"primitives":[{
			"attributes":{
				"POSITION":33,
				"NORMAL":34,
				"TEXCOORD_0":35
			},
			"indices":32,
			"material":2
		}]
	},
	{
		"name":"Pyramid.3",
		"primitives":[{
			"attributes":{
				"POSITION":37,
				"NORMAL":38,
				"TEXCOORD_0":39
			},
			"indices":36,
			"material":1
		}]
	},
	{
		"name":"Pyramid.2",
		"primitives":[{
			"attributes":{
				"POSITION":41,
				"NORMAL":42,
				"TEXCOORD_0":43
			},
			"indices":40,
			"material":1
		}]
	},
	{
		"name":"Pyramid.1",
		"primitives":[{
			"attributes":{
				"POSITION":45,
				"NORMAL":46,
				"TEXCOORD_0":47
			},
			"indices":44,
			"material":2
		}]
	},
	{
		"name":"Pyramid",
		"primitives":[{
			"attributes":{
				"POSITION":49,
				"NORMAL":50,
				"TEXCOORD_0":51
			},
			"indices":48,
			"material":1
		}]
	}],
	"accessors":[{
		"bufferView":0,
		"type":"SCALAR",
		"componentType":5123,
		"count":96,
		"byteOffset":0,
		"min":[0],
		"max":[51]
	},
	{
		"bufferView":1,
		"type":"VEC3",
		"componentType":5126,
		"count":52,
		"byteOffset":0,
		"min":[-31.03921890258789,
		-29.151628494262697,
		-27.23383331298828],
		"max":[28.798812866210939,
		14.803040504455567,
		37.52096176147461]
	},
	{
		"bufferView":1,
		"type":"VEC3",
		"componentType":5126,
		"count":52,
		"byteOffset":12,
		"min":[-0.814301609992981,
		-0.787891149520874,
		-0.8105670213699341],
		"max":[0.6137222647666931,
		0.9590036869049072,
		0.6778870224952698]
	},
	{
		"bufferView":1,
		"type":"VEC2",
		"componentType":5126,
		"count":52,
		"byteOffset":24,
		"min":[0.0,
		0.0],
		"max":[1.0,
		0.8669999837875366]
	},
	{
		"bufferView":2,
		"type":"SCALAR",
		"componentType":5123,
		"count":60,
		"byteOffset":0,
		"min":[0],
		"max":[52]
	},
	{
		"bufferView":3,
		"type":"VEC3",
		"componentType":5126,
		"count":53,
		"byteOffset":0,
		"min":[-33.68191909790039,
		-27.729110717773439,
		-23.3793888092041],
		"max":[26.36353302001953,
		25.82915496826172,
		34.65542984008789]
	},
	{
		"bufferView":3,
		"type":"VEC3",
		"componentType":5126,
		"count":53,
		"byteOffset":12,
		"min":[-0.8865154981613159,
		-0.9854699969291687,
		-0.9633872509002686],
		"max":[0.8912146091461182,
		0.9162416458129883,
		0.8985996842384338]
	},
	{
		"bufferView":3,
		"type":"VEC2",
		"componentType":5126,
		"count":53,
		"byteOffset":24,
		"min":[0.0,
		0.0],
		"max":[1.0,
		0.8659999370574951]
	},
	{
		"bufferView":4,
		"type":"SCALAR",
		"componentType":5123,
		"count":18,
		"byteOffset":0,
		"min":[0],
		"max":[15]
	},
	{
		"bufferView":5,
		"type":"VEC3",
		"componentType":5126,
		"count":16,
		"byteOffset":0,
		"min":[-6.42305326461792,
		-58.57278823852539,
		-6.292546272277832],
		"max":[6.42305326461792,
		58.57278823852539,
		6.292546272277832]
	},
	{
		"bufferView":5,
		"type":"VEC3",
		"componentType":5126,
		"count":16,
		"byteOffset":12,
		"min":[-0.9985002875328064,
		-1.0,
		-0.99856036901474],
		"max":[0.9985002875328064,
		0.054747436195611957,
		0.9985604286193848]
	},
	{
		"bufferView":5,
		"type":"VEC2",
		"componentType":5126,
		"count":16,
		"byteOffset":24,
		"min":[0.0,
		0.0],
		"max":[1.0,
		1.0]
	},
	{
		"bufferView":6,
		"type":"SCALAR",
		"componentType":5123,
		"count":18,
		"byteOffset":0,
		"min":[0],
		"max":[15]
	},
	{
		"bufferView":7,
		"type":"VEC3",
		"componentType":5126,
		"count":16,
		"byteOffset":0,
		"min":[-6.42305326461792,
		-58.41033935546875,
		-6.292546272277832],
		"max":[6.42305326461792,
		58.41033935546875,
		6.292546272277832]
	},
	{
		"bufferView":7,
		"type":"VEC3",
		"componentType":5126,
		"count":16,
		"byteOffset":12,
		"min":[-0.9984918832778931,
		-1.0,
		-0.9985523819923401],
		"max":[0.9984918832778931,
		0.05489923804998398,
		0.9985524415969849]
	},
	{
		"bufferView":7,
		"type":"VEC2",
		"componentType":5126,
		"count":16,
		"byteOffset":24,
		"min":[0.0,
		0.0],
		"max":[1.0,
		1.0]
	},
	{
		"bufferView":8,
		"type":"SCALAR",
		"componentType":5123,
		"count":18,
		"byteOffset":0,
		"min":[0],
		"max":[15]
	},
	{
		"bufferView":9,
		"type":"VEC3",
		"componentType":5126,
		"count":16,
		"byteOffset":0,
		"min":[-6.42305326461792,
		-44.45560836791992,
		-6.292546272277832],
		"max":[6.42305326461792,
		44.45560836791992,
		6.292546272277832]
	},
	{
		"bufferView":9,
		"type":"VEC3",
		"componentType":5126,
		"count":16,
		"byteOffset":12,
		"min":[-0.9974007606506348,
		-1.0,
		-0.9975048899650574],
		"max":[0.9974007606506348,
		0.07205342501401901,
		0.9975049495697022]
	},
	{
		"bufferView":9,
		"type":"VEC2",
		"componentType":5126,
		"count":16,
		"byteOffset":24,
		"min":[0.0,
		0.0],
		"max":[1.0,
		1.0]
	},
	{
		"bufferView":10,
		"type":"SCALAR",
		"componentType":5123,
		"count":18,
		"byteOffset":0,
		"min":[0],
		"max":[15]
	},
	{
		"bufferView":11,
		"type":"VEC3",
		"componentType":5126,
		"count":16,
		"byteOffset":0,
		"min":[-6.42305326461792,
		-44.45560836791992,
		-6.292546272277832],
		"max":[6.42305326461792,
		44.45560836791992,
		6.292546272277832]
	},
	{
		"bufferView":11,
		"type":"VEC3",
		"componentType":5126,
		"count":16,
		"byteOffset":12,
		"min":[-0.9974007606506348,
		-1.0,
		-0.9975048899650574],
		"max":[0.9974007606506348,
		0.07205342501401901,
		0.9975049495697022]
	},
	{
		"bufferView":11,
		"type":"VEC2",
		"componentType":5126,
		"count":16,
		"byteOffset":24,
		"min":[0.0,
		0.0],
		"max":[1.0,
		1.0]
	},
	{
		"bufferView":12,
		"type":"SCALAR",
		"componentType":5123,
		"count":18,
		"byteOffset":0,
		"min":[0],
		"max":[15]
	},
	{
		"bufferView":13,
		"type":"VEC3",
		"componentType":5126,
		"count":16,
		"byteOffset":0,
		"min":[-6.42305326461792,
		-58.41033935546875,
		-6.292546272277832],
		"max":[6.42305326461792,
		58.41033935546875,
		6.292546272277832]
	},
	{
		"bufferView":13,
		"type":"VEC3",
		"componentType":5126,
		"count":16,
		"byteOffset":12,
		"min":[-0.9984918832778931,
		-1.0,
		-0.9985523819923401],
		"max":[0.9984918832778931,
		0.05489923804998398,
		0.9985524415969849]
	},
	{
		"bufferView":13,
		"type":"VEC2",
		"componentType":5126,
		"count":16,
		"byteOffset":24,
		"min":[0.0,
		0.0],
		"max":[1.0,
		1.0]
	},
	{
		"bufferView":14,
		"type":"SCALAR",
		"componentType":5123,
		"count":18,
		"byteOffset":0,
		"min":[0],
		"max":[15]
	},
	{
		"bufferView":15,
		"type":"VEC3",
		"componentType":5126,
		"count":16,
		"byteOffset":0,
		"min":[-6.42305326461792,
		-58.41033935546875,
		-6.292546272277832],
		"max":[6.42305326461792,
		58.41033935546875,
		6.292546272277832]
	},
	{
		"bufferView":15,
		"type":"VEC3",
		"componentType":5126,
		"count":16,
		"byteOffset":12,
		"min":[-0.9984918832778931,
		-1.0,
		-0.9985523819923401],
		"max":[0.9984918832778931,
		0.05489923804998398,
		0.9985524415969849]
	},
	{
		"bufferView":15,
		"type":"VEC2",
		"componentType":5126,
		"count":16,
		"byteOffset":24,
		"min":[0.0,
		0.0],
		"max":[1.0,
		1.0]
	},
	{
		"bufferView":16,
		"type":"SCALAR",
		"componentType":5123,
		"count":18,
		"byteOffset":0,
		"min":[0],
		"max":[15]
	},
	{
		"bufferView":17,
		"type":"VEC3",
		"componentType":5126,
		"count":16,
		"byteOffset":0,
		"min":[-6.42305326461792,
		-45.59451675415039,
		-6.292546272277832],
		"max":[6.42305326461792,
		45.59451675415039,
		6.292546272277832]
	},
	{
		"bufferView":17,
		"type":"VEC3",
		"componentType":5126,
		"count":16,
		"byteOffset":12,
		"min":[-0.9975284934043884,
		-1.0,
		-0.9976275563240051],
		"max":[0.9975284934043884,
		0.0702625960111618,
		0.9976276159286499]
	},
	{
		"bufferView":17,
		"type":"VEC2",
		"componentType":5126,
		"count":16,
		"byteOffset":24,
		"min":[0.0,
		0.0],
		"max":[1.0,
		1.0]
	},
	{
		"bufferView":18,
		"type":"SCALAR",
		"componentType":5123,
		"count":18,
		"byteOffset":0,
		"min":[0],
		"max":[15]
	},
	{
		"bufferView":19,
		"type":"VEC3",
		"componentType":5126,
		"count":16,
		"byteOffset":0,
		"min":[-6.42305326461792,
		-44.45560836791992,
		-6.292546272277832],
		"max":[6.42305326461792,
		44.45560836791992,
		6.292546272277832]
	},
	{
		"bufferView":19,
		"type":"VEC3",
		"componentType":5126,
		"count":16,
		"byteOffset":12,
		"min":[-0.9974007606506348,
		-1.0,
		-0.9975048899650574],
		"max":[0.9974007606506348,
		0.07205342501401901,
		0.9975049495697022]
	},
	{
		"bufferView":19,
		"type":"VEC2",
		"componentType":5126,
		"count":16,
		"byteOffset":24,
		"min":[0.0,
		0.0],
		"max":[1.0,
		1.0]
	},
	{
		"bufferView":20,
		"type":"SCALAR",
		"componentType":5123,
		"count":18,
		"byteOffset":0,
		"min":[0],
		"max":[15]
	},
	{
		"bufferView":21,
		"type":"VEC3",
		"componentType":5126,
		"count":16,
		"byteOffset":0,
		"min":[-6.42305326461792,
		-58.57278823852539,
		-6.292546272277832],
		"max":[6.42305326461792,
		58.57278823852539,
		6.292546272277832]
	},
	{
		"bufferView":21,
		"type":"VEC3",
		"componentType":5126,
		"count":16,
		"byteOffset":12,
		"min":[-0.9985002875328064,
		-1.0,
		-0.99856036901474],
		"max":[0.9985002875328064,
		0.054747436195611957,
		0.9985604286193848]
	},
	{
		"bufferView":21,
		"type":"VEC2",
		"componentType":5126,
		"count":16,
		"byteOffset":24,
		"min":[0.0,
		0.0],
		"max":[1.0,
		1.0]
	},
	{
		"bufferView":22,
		"type":"SCALAR",
		"componentType":5123,
		"count":18,
		"byteOffset":0,
		"min":[0],
		"max":[15]
	},
	{
		"bufferView":23,
		"type":"VEC3",
		"componentType":5126,
		"count":16,
		"byteOffset":0,
		"min":[-6.42305326461792,
		-45.59451675415039,
		-6.292546272277832],
		"max":[6.42305326461792,
		45.59451675415039,
		6.292546272277832]
	},
	{
		"bufferView":23,
		"type":"VEC3",
		"componentType":5126,
		"count":16,
		"byteOffset":12,
		"min":[-0.9975284934043884,
		-1.0,
		-0.9976275563240051],
		"max":[0.9975284934043884,
		0.0702625960111618,
		0.9976276159286499]
	},
	{
		"bufferView":23,
		"type":"VEC2",
		"componentType":5126,
		"count":16,
		"byteOffset":24,
		"min":[0.0,
		0.0],
		"max":[1.0,
		1.0]
	},
	{
		"bufferView":24,
		"type":"SCALAR",
		"componentType":5123,
		"count":18,
		"byteOffset":0,
		"min":[0],
		"max":[15]
	},
	{
		"bufferView":25,
		"type":"VEC3",
		"componentType":5126,
		"count":16,
		"byteOffset":0,
		"min":[-6.42305326461792,
		-58.41033935546875,
		-6.292546272277832],
		"max":[6.42305326461792,
		58.41033935546875,
		6.292546272277832]
	},
	{
		"bufferView":25,
		"type":"VEC3",
		"componentType":5126,
		"count":16,
		"byteOffset":12,
		"min":[-0.9984918832778931,
		-1.0,
		-0.9985523819923401],
		"max":[0.9984918832778931,
		0.05489923804998398,
		0.9985524415969849]
	},
	{
		"bufferView":25,
		"type":"VEC2",
		"componentType":5126,
		"count":16,
		"byteOffset":24,
		"min":[0.0,
		0.0],
		"max":[1.0,
		1.0]
	}],
	"bufferViews":[{
		"buffer":0,
		"byteOffset":0,
		"byteLength":192,
		"target":34963
	},
	{
		"buffer":0,
		"byteOffset":192,
		"byteLength":1664,
		"target":34962,
		"byteStride":32
	},
	{
		"buffer":1,
		"byteOffset":0,
		"byteLength":120,
		"target":34963
	},
	{
		"buffer":1,
		"byteOffset":120,
		"byteLength":1696,
		"target":34962,
		"byteStride":32
	},
	{
		"buffer":2,
		"byteOffset":0,
		"byteLength":36,
		"target":34963
	},
	{
		"buffer":2,
		"byteOffset":36,
		"byteLength":512,
		"target":34962,
		"byteStride":32
	},
	{
		"buffer":3,
		"byteOffset":0,
		"byteLength":36,
		"target":34963
	},
	{
		"buffer":3,
		"byteOffset":36,
		"byteLength":512,
		"target":34962,
		"byteStride":32
	},
	{
		"buffer":4,
		"byteOffset":0,
		"byteLength":36,
		"target":34963
	},
	{
		"buffer":4,
		"byteOffset":36,
		"byteLength":512,
		"target":34962,
		"byteStride":32
	},
	{
		"buffer":5,
		"byteOffset":0,
		"byteLength":36,
		"target":34963
	},
	{
		"buffer":5,
		"byteOffset":36,
		"byteLength":512,
		"target":34962,
		"byteStride":32
	},
	{
		"buffer":6,
		"byteOffset":0,
		"byteLength":36,
		"target":34963
	},
	{
		"buffer":6,
		"byteOffset":36,
		"byteLength":512,
		"target":34962,
		"byteStride":32
	},
	{
		"buffer":7,
		"byteOffset":0,
		"byteLength":36,
		"target":34963
	},
	{
		"buffer":7,
		"byteOffset":36,
		"byteLength":512,
		"target":34962,
		"byteStride":32
	},
	{
		"buffer":8,
		"byteOffset":0,
		"byteLength":36,
		"target":34963
	},
	{
		"buffer":8,
		"byteOffset":36,
		"byteLength":512,
		"target":34962,
		"byteStride":32
	},
	{
		"buffer":9,
		"byteOffset":0,
		"byteLength":36,
		"target":34963
	},
	{
		"buffer":9,
		"byteOffset":36,
		"byteLength":512,
		"target":34962,
		"byteStride":32
	},
	{
		"buffer":10,
		"byteOffset":0,
		"byteLength":36,
		"target":34963
	},
	{
		"buffer":10,
		"byteOffset":36,
		"byteLength":512,
		"target":34962,
		"byteStride":32
	},
	{
		"buffer":11,
		"byteOffset":0,
		"byteLength":36,
		"target":34963
	},
	{
		"buffer":11,
		"byteOffset":36,
		"byteLength":512,
		"target":34962,
		"byteStride":32
	},
	{
		"buffer":12,
		"byteOffset":0,
		"byteLength":36,
		"target":34963
	},
	{
		"buffer":12,
		"byteOffset":36,
		"byteLength":512,
		"target":34962,
		"byteStride":32
	}],
	"buffers":[{
		"uri":"data:application/octet-stream;base64,",
		"byteLength":1856
	},
	{
		"uri":"data:application/octet-stream;base64,",
		"byteLength":1816
	},
	{
		"uri":"data:application/octet-stream;base64,",
		"byteLength":548
	},
	{
		"uri":"data:application/octet-stream;base64,",
		"byteLength":548
	},
	{
		"uri":"data:application/octet-stream;base64,",
		"byteLength":548
	},
	{
		"uri":"data:application/octet-stream;base64,",
		"byteLength":548
	},
	{
		"uri":"data:application/octet-stream;base64,",
		"byteLength":548
	},
	{
		"uri":"data:application/octet-stream;base64,",
		"byteLength":548
	},
	{
		"uri":"data:application/octet-stream;base64,",
		"byteLength":548
	},
	{
		"uri":"data:application/octet-stream;base64,",
		"byteLength":548
	},
	{
		"uri":"data:application/octet-stream;base64,",
		"byteLength":548
	},
	{
		"uri":"data:application/octet-stream;base64,",
		"byteLength":548
	},
	{
		"uri":"data:application/octet-stream;base64,",
		"byteLength":548
	}],
	"materials":[{
		"pbrMetallicRoughness":{
			"baseColorFactor":[0.42,
			0.42,
			0.42,
			1.0],
			"metallicFactor":0.0,
			"roughnessFactor":0.5
		},
		"emissiveFactor":[0.0,
		0.0,
		0.0],
		"alphaMode":"OPAQUE",
		"doubleSided":true,
		"name":"Mat"
	},
	{
		"pbrMetallicRoughness":{
			"baseColorFactor":[0.4664,
			0.55,
			0.132,
			1.0],
			"metallicFactor":0.0,
			"roughnessFactor":0.5
		},
		"emissiveFactor":[0.0,
		0.0,
		0.0],
		"alphaMode":"OPAQUE",
		"doubleSided":true,
		"name":"Mat.2"
	},
	{
		"pbrMetallicRoughness":{
			"baseColorFactor":[0.33071999999999998,
			0.39,
			0.0936,
			1.0],
			"metallicFactor":0.0,
			"roughnessFactor":0.5
		},
		"emissiveFactor":[0.0,
		0.0,
		0.0],
		"alphaMode":"OPAQUE",
		"doubleSided":true,
		"name":"Mat.3"
	}]
}