{
	"asset":{
		"version":"2.0",
		"generator":"Created using the official Cinema 4D glTF Exporter 1.000x284978"
	},
	"scenes":[{
		"nodes":[0,
		10,
		11,
		12,
		13]
	}],
	"nodes":[{
		"name":"MoText",
		"translation":[135.47584533691407,
		128.09170532226563,
		80.64879608154297],
		"rotation":[0.0,
		-0.7071067690849304,
		0.0,
		-0.7071067690849304],
		"scale":[1.0,
		1.0,
		1.0],
		"children":[1]
	},
	{
		"name":"Text",
		"children":[2]
	},
	{
		"name":"1",
		"children":[3]
	},
	{
		"name":"Office",
		"children":[4,
		5,
		6,
		7,
		8,
		9]
	},
	{
		"name":"O",
		"mesh":0
	},
	{
		"name":"f",
		"translation":[7.00048828125,
		0.0,
		4.5096584683234669e-15],
		"rotation":[0.0,
		0.0,
		0.0,
		-1.0],
		"scale":[1.0,
		1.0,
		1.0],
		"mesh":1
	},
	{
		"name":"f",
		"translation":[9.5009765625,
		0.0,
		4.356547522228358e-15],
		"rotation":[0.0,
		0.0,
		0.0,
		-1.0],
		"scale":[1.0,
		1.0,
		1.0],
		"mesh":2
	},
	{
		"name":"i",
		"translation":[12.00146484375,
		0.0,
		4.203436999649724e-15],
		"rotation":[0.0,
		0.0,
		0.0,
		-1.0],
		"scale":[1.0,
		1.0,
		1.0],
		"mesh":3
	},
	{
		"name":"c",
		"translation":[14.0009765625,
		0.0,
		4.081002198772377e-15],
		"rotation":[0.0,
		0.0,
		0.0,
		-1.0],
		"scale":[1.0,
		1.0,
		1.0],
		"mesh":4
	},
	{
		"name":"e",
		"translation":[18.5009765625,
		0.0,
		3.8054564517999229e-15],
		"rotation":[0.0,
		0.0,
		0.0,
		-1.0],
		"scale":[1.0,
		1.0,
		1.0],
		"mesh":5
	},
	{
		"name":"Cube.2",
		"translation":[134.28558349609376,
		131.427490234375,
		68.62410736083985],
		"rotation":[0.0,
		0.0,
		0.0,
		-1.0],
		"scale":[1.0,
		1.0,
		1.0],
		"mesh":6
	},
	{
		"name":"Pyramid",
		"translation":[0.0,
		253.2965850830078,
		0.0],
		"rotation":[0.0,
		0.0,
		0.0,
		-1.0],
		"scale":[1.0,
		1.0,
		1.0],
		"mesh":7
	},
	{
		"name":"Cube.1",
		"translation":[131.04957580566407,
		68.58113861083985,
		0.0],
		"rotation":[0.0,
		0.0,
		0.0,
		-1.0],
		"scale":[1.0,
		1.0,
		1.0],
		"mesh":8
	},
	{
		"name":"Cube",
		"translation":[0.0,
		97.15853118896485,
		0.0],
		"rotation":[0.0,
		0.0,
		0.0,
		-1.0],
		"scale":[1.0,
		1.0,
		1.0],
		"mesh":9
	}],
	"meshes":[{
		"name":"O",
		"primitives":[{
			"attributes":{
				"POSITION":1,
				"NORMAL":2,
				"TEXCOORD_0":3
			},
			"indices":0
		}]
	},
	{
		"name":"f",
		"primitives":[{
			"attributes":{
				"POSITION":5,
				"NORMAL":6,
				"TEXCOORD_0":7
			},
			"indices":4
		}]
	},
	{
		"name":"f",
		"primitives":[{
			"attributes":{
				"POSITION":9,
				"NORMAL":10,
				"TEXCOORD_0":11
			},
			"indices":8
		}]
	},
	{
		"name":"i",
		"primitives":[{
			"attributes":{
				"POSITION":13,
				"NORMAL":14,
				"TEXCOORD_0":15
			},
			"indices":12
		}]
	},
	{
		"name":"c",
		"primitives":[{
			"attributes":{
				"POSITION":17,
				"NORMAL":18,
				"TEXCOORD_0":19
			},
			"indices":16
		}]
	},
	{
		"name":"e",
		"primitives":[{
			"attributes":{
				"POSITION":21,
				"NORMAL":22,
				"TEXCOORD_0":23
			},
			"indices":20
		}]
	},
	{
		"name":"Cube.2",
		"primitives":[{
			"attributes":{
				"POSITION":25,
				"NORMAL":26,
				"TEXCOORD_0":27
			},
			"indices":24
		}]
	},
	{
		"name":"Pyramid",
		"primitives":[{
			"attributes":{
				"POSITION":29,
				"NORMAL":30,
				"TEXCOORD_0":31
			},
			"indices":28,
			"material":0
		}]
	},
	{
		"name":"Cube.1",
		"primitives":[{
			"attributes":{
				"POSITION":33,
				"NORMAL":34,
				"TEXCOORD_0":35
			},
			"indices":32,
			"material":1
		}]
	},
	{
		"name":"Cube",
		"primitives":[{
			"attributes":{
				"POSITION":37,
				"NORMAL":38,
				"TEXCOORD_0":39
			},
			"indices":36,
			"material":2
		}]
	}],
	"accessors":[{
		"bufferView":0,
		"type":"SCALAR",
		"componentType":5123,
		"count":1656,
		"byteOffset":0,
		"min":[0],
		"max":[555]
	},
	{
		"bufferView":1,
		"type":"VEC3",
		"componentType":5126,
		"count":556,
		"byteOffset":0,
		"min":[0.3515625,
		-0.18896484375,
		-2.0],
		"max":[6.64453125,
		6.63134765625,
		0.0]
	},
	{
		"bufferView":1,
		"type":"VEC3",
		"componentType":5126,
		"count":556,
		"byteOffset":12,
		"min":[-0.9999812841415405,
		-0.9999982714653015,
		-1.0],
		"max":[0.9999439716339111,
		0.9999555349349976,
		1.0]
	},
	{
		"bufferView":1,
		"type":"VEC2",
		"componentType":5126,
		"count":556,
		"byteOffset":24,
		"min":[0.0,
		0.0],
		"max":[1.0,
		1.0]
	},
	{
		"bufferView":2,
		"type":"SCALAR",
		"componentType":5123,
		"count":564,
		"byteOffset":0,
		"min":[0],
		"max":[217]
	},
	{
		"bufferView":3,
		"type":"VEC3",
		"componentType":5126,
		"count":218,
		"byteOffset":0,
		"min":[0.123046875,
		0.0,
		-2.0],
		"max":[2.35107421875,
		6.5478515625,
		0.0]
	},
	{
		"bufferView":3,
		"type":"VEC3",
		"componentType":5126,
		"count":218,
		"byteOffset":12,
		"min":[-1.0,
		-1.0,
		-1.0],
		"max":[1.0,
		1.0,
		1.0]
	},
	{
		"bufferView":3,
		"type":"VEC2",
		"componentType":5126,
		"count":218,
		"byteOffset":24,
		"min":[0.0,
		0.0],
		"max":[1.0,
		1.0]
	},
	{
		"bufferView":4,
		"type":"SCALAR",
		"componentType":5123,
		"count":564,
		"byteOffset":0,
		"min":[0],
		"max":[217]
	},
	{
		"bufferView":5,
		"type":"VEC3",
		"componentType":5126,
		"count":218,
		"byteOffset":0,
		"min":[0.123046875,
		0.0,
		-2.0],
		"max":[2.35107421875,
		6.5478515625,
		0.0]
	},
	{
		"bufferView":5,
		"type":"VEC3",
		"componentType":5126,
		"count":218,
		"byteOffset":12,
		"min":[-1.0,
		-1.0,
		-1.0],
		"max":[1.0,
		1.0,
		1.0]
	},
	{
		"bufferView":5,
		"type":"VEC2",
		"componentType":5126,
		"count":218,
		"byteOffset":24,
		"min":[0.0,
		0.0],
		"max":[1.0,
		1.0]
	},
	{
		"bufferView":6,
		"type":"SCALAR",
		"componentType":5123,
		"count":72,
		"byteOffset":0,
		"min":[0],
		"max":[47]
	},
	{
		"bufferView":7,
		"type":"VEC3",
		"componentType":5126,
		"count":48,
		"byteOffset":0,
		"min":[0.580078125,
		0.0,
		-2.0],
		"max":[1.38427734375,
		6.45556640625,
		0.0]
	},
	{
		"bufferView":7,
		"type":"VEC3",
		"componentType":5126,
		"count":48,
		"byteOffset":12,
		"min":[-1.0,
		-1.0,
		-1.0],
		"max":[1.0,
		1.0,
		1.0]
	},
	{
		"bufferView":7,
		"type":"VEC2",
		"componentType":5126,
		"count":48,
		"byteOffset":24,
		"min":[0.0,
		0.0],
		"max":[1.0,
		1.0]
	},
	{
		"bufferView":8,
		"type":"SCALAR",
		"componentType":5123,
		"count":1620,
		"byteOffset":0,
		"min":[0],
		"max":[553]
	},
	{
		"bufferView":9,
		"type":"VEC3",
		"componentType":5126,
		"count":554,
		"byteOffset":0,
		"min":[0.25927734375,
		-0.13623046875,
		-2.0],
		"max":[4.2890625,
		4.8427734375,
		0.0]
	},
	{
		"bufferView":9,
		"type":"VEC3",
		"componentType":5126,
		"count":554,
		"byteOffset":12,
		"min":[-0.9999753832817078,
		-1.0,
		-1.0],
		"max":[0.9999812245368958,
		1.0,
		1.0]
	},
	{
		"bufferView":9,
		"type":"VEC2",
		"componentType":5126,
		"count":554,
		"byteOffset":24,
		"min":[0.0,
		0.0],
		"max":[1.0,
		1.0]
	},
	{
		"bufferView":10,
		"type":"SCALAR",
		"componentType":5123,
		"count":1668,
		"byteOffset":0,
		"min":[0],
		"max":[569]
	},
	{
		"bufferView":11,
		"type":"VEC3",
		"componentType":5126,
		"count":570,
		"byteOffset":0,
		"min":[0.31640625,
		-0.1669921875,
		-2.0],
		"max":[4.6142578125,
		4.81201171875,
		0.0]
	},
	{
		"bufferView":11,
		"type":"VEC3",
		"componentType":5126,
		"count":570,
		"byteOffset":12,
		"min":[-0.9999949336051941,
		-1.0,
		-1.0],
		"max":[0.9997811317443848,
		1.0,
		1.0]
	},
	{
		"bufferView":11,
		"type":"VEC2",
		"componentType":5126,
		"count":570,
		"byteOffset":24,
		"min":[0.0,
		0.0],
		"max":[1.0,
		1.0]
	},
	{
		"bufferView":12,
		"type":"SCALAR",
		"componentType":5123,
		"count":6372,
		"byteOffset":0,
		"min":[0],
		"max":[1299]
	},
	{
		"bufferView":13,
		"type":"VEC3",
		"componentType":5126,
		"count":1300,
		"byteOffset":0,
		"min":[-0.641450047492981,
		-6.745016574859619,
		-26.27817153930664],
		"max":[0.641450047492981,
		6.745016574859619,
		26.27817153930664]
	},
	{
		"bufferView":13,
		"type":"VEC3",
		"componentType":5126,
		"count":1300,
		"byteOffset":12,
		"min":[-0.9987279772758484,
		-0.9985396265983582,
		-0.9971712827682495],
		"max":[0.9987279772758484,
		0.9985464215278626,
		0.9971712827682495]
	},
	{
		"bufferView":13,
		"type":"VEC2",
		"componentType":5126,
		"count":1300,
		"byteOffset":24,
		"min":[0.0,
		0.0],
		"max":[1.0,
		1.0]
	},
	{
		"bufferView":14,
		"type":"SCALAR",
		"componentType":5123,
		"count":18,
		"byteOffset":0,
		"min":[0],
		"max":[15]
	},
	{
		"bufferView":15,
		"type":"VEC3",
		"componentType":5126,
		"count":16,
		"byteOffset":0,
		"min":[-167.51373291015626,
		-78.16246795654297,
		-251.03472900390626],
		"max":[167.51373291015626,
		78.16246795654297,
		251.03472900390626]
	},
	{
		"bufferView":15,
		"type":"VEC3",
		"componentType":5126,
		"count":16,
		"byteOffset":12,
		"min":[-0.6822687387466431,
		-1.0,
		-0.5286079049110413],
		"max":[0.6822687387466431,
		0.8488661050796509,
		0.5286079049110413]
	},
	{
		"bufferView":15,
		"type":"VEC2",
		"componentType":5126,
		"count":16,
		"byteOffset":24,
		"min":[0.0,
		0.0],
		"max":[1.0,
		1.0]
	},
	{
		"bufferView":16,
		"type":"SCALAR",
		"componentType":5123,
		"count":7338,
		"byteOffset":0,
		"min":[0],
		"max":[1644]
	},
	{
		"bufferView":17,
		"type":"VEC3",
		"componentType":5126,
		"count":1645,
		"byteOffset":0,
		"min":[-3.283512592315674,
		-70.3763427734375,
		-37.352386474609378],
		"max":[4.684667587280273,
		70.3763427734375,
		37.352386474609378]
	},
	{
		"bufferView":17,
		"type":"VEC3",
		"componentType":5126,
		"count":1645,
		"byteOffset":12,
		"min":[-1.0,
		-1.0,
		-1.0],
		"max":[1.0,
		1.0,
		1.0]
	},
	{
		"bufferView":17,
		"type":"VEC2",
		"componentType":5126,
		"count":1645,
		"byteOffset":24,
		"min":[0.0,
		0.0],
		"max":[1.0,
		1.0]
	},
	{
		"bufferView":18,
		"type":"SCALAR",
		"componentType":5123,
		"count":2652,
		"byteOffset":0,
		"min":[0],
		"max":[859]
	},
	{
		"bufferView":19,
		"type":"VEC3",
		"componentType":5126,
		"count":860,
		"byteOffset":0,
		"min":[-139.65176391601563,
		-106.6033706665039,
		-206.1084442138672],
		"max":[133.2162322998047,
		100.0,
		206.1084442138672]
	},
	{
		"bufferView":19,
		"type":"VEC3",
		"componentType":5126,
		"count":860,
		"byteOffset":12,
		"min":[-1.0,
		-1.0,
		-1.0],
		"max":[1.0,
		1.0,
		1.0]
	},
	{
		"bufferView":19,
		"type":"VEC2",
		"componentType":5126,
		"count":860,
		"byteOffset":24,
		"min":[0.0,
		0.0],
		"max":[1.0,
		1.0]
	}],
	"bufferViews":[{
		"buffer":0,
		"byteOffset":0,
		"byteLength":3312,
		"target":34963
	},
	{
		"buffer":0,
		"byteOffset":3312,
		"byteLength":17792,
		"byteStride":32,
		"target":34962
	},
	{
		"buffer":1,
		"byteOffset":0,
		"byteLength":1128,
		"target":34963
	},
	{
		"buffer":1,
		"byteOffset":1128,
		"byteLength":6976,
		"byteStride":32,
		"target":34962
	},
	{
		"buffer":2,
		"byteOffset":0,
		"byteLength":1128,
		"target":34963
	},
	{
		"buffer":2,
		"byteOffset":1128,
		"byteLength":6976,
		"byteStride":32,
		"target":34962
	},
	{
		"buffer":3,
		"byteOffset":0,
		"byteLength":144,
		"target":34963
	},
	{
		"buffer":3,
		"byteOffset":144,
		"byteLength":1536,
		"byteStride":32,
		"target":34962
	},
	{
		"buffer":4,
		"byteOffset":0,
		"byteLength":3240,
		"target":34963
	},
	{
		"buffer":4,
		"byteOffset":3240,
		"byteLength":17728,
		"byteStride":32,
		"target":34962
	},
	{
		"buffer":5,
		"byteOffset":0,
		"byteLength":3336,
		"target":34963
	},
	{
		"buffer":5,
		"byteOffset":3336,
		"byteLength":18240,
		"byteStride":32,
		"target":34962
	},
	{
		"buffer":6,
		"byteOffset":0,
		"byteLength":12744,
		"target":34963
	},
	{
		"buffer":6,
		"byteOffset":12744,
		"byteLength":41600,
		"byteStride":32,
		"target":34962
	},
	{
		"buffer":7,
		"byteOffset":0,
		"byteLength":36,
		"target":34963
	},
	{
		"buffer":7,
		"byteOffset":36,
		"byteLength":512,
		"byteStride":32,
		"target":34962
	},
	{
		"buffer":8,
		"byteOffset":0,
		"byteLength":14676,
		"target":34963
	},
	{
		"buffer":8,
		"byteOffset":14676,
		"byteLength":52640,
		"byteStride":32,
		"target":34962
	},
	{
		"buffer":9,
		"byteOffset":0,
		"byteLength":5304,
		"target":34963
	},
	{
		"buffer":9,
		"byteOffset":5304,
		"byteLength":27520,
		"byteStride":32,
		"target":34962
	}],
	"buffers":[{
		"uri":"data:application/octet-stream;base64,",
		"byteLength":21104
	},
	{
		"uri":"data:application/octet-stream;base64,",
		"byteLength":8104
	},
	{
		"uri":"data:application/octet-stream;base64,",
		"byteLength":8104
	},
	{
		"uri":"data:application/octet-stream;base64,",
		"byteLength":1680
	},
	{
		"uri":"data:application/octet-stream;base64,",
		"byteLength":20968
	},
	{
		"uri":"data:application/octet-stream;base64,",
		"byteLength":21576
	},
	{
		"uri":"data:application/octet-stream;base64,",
		"byteLength":54344
	},
	{
		"uri":"data:application/octet-stream;base64,",
		"byteLength":548
	},
	{
		"uri":"data:application/octet-stream;base64,",
		"byteLength":67316
	},
	{
		"uri":"data:application/octet-stream;base64,",
		"byteLength":32824
	}],
	"materials":[{
		"pbrMetallicRoughness":{
			"baseColorFactor":[0.4,
			0.4,
			0.4,
			1.0],
			"metallicFactor":0.0,
			"roughnessFactor":0.11
		},
		"emissiveFactor":[0.0,
		0.0,
		0.0],
		"alphaMode":"OPAQUE",
		"doubleSided":true,
		"name":"Mat.2"
	},
	{
		"pbrMetallicRoughness":{
			"baseColorFactor":[0.54,
			0.3113100000000001,
			0.1242,
			1.0],
			"metallicFactor":0.0,
			"roughnessFactor":0.5
		},
		"emissiveFactor":[0.0,
		0.0,
		0.0],
		"alphaMode":"OPAQUE",
		"doubleSided":true,
		"name":"Mat.1"
	},
	{
		"pbrMetallicRoughness":{
			"baseColorFactor":[0.7928000000000002,
			0.8,
			0.368,
			1.0],
			"metallicFactor":0.0,
			"roughnessFactor":0.5
		},
		"emissiveFactor":[0.0,
		0.0,
		0.0],
		"alphaMode":"OPAQUE",
		"doubleSided":true,
		"name":"Mat"
	}]
}