{
	"asset":{
		"version":"2.0",
		"generator":"Created using the official Cinema 4D glTF Exporter 1.000x284978"
	},
	"scenes":[{
		"nodes":[0]
	}],
	"nodes":[{
		"name":"Null",
		"translation":[-182.4340057373047,
		37.79918670654297,
		421.4496765136719],
		"rotation":[0.0021593959536403419,
		-0.7080879807472229,
		0.0021654213778674604,
		0.7061176300048828],
		"scale":[1.0,
		1.0,
		1.0],
		"children":[1]
	},
	{
		"name":"Tree",
		"translation":[-42.30006408691406,
		552.6505737304688,
		-45.415218353271487],
		"rotation":[-0.026311108842492105,
		-1.9655582500152647e-14,
		-5.173392956396344e-16,
		0.9996538162231445],
		"scale":[1.0,
		1.0,
		1.0],
		"children":[2,
		4,
		6,
		8,
		10,
		12]
	},
	{
		"name":"Platonic.4",
		"translation":[-61.14167022705078,
		149.9551544189453,
		-50.4460334777832],
		"rotation":[0.0,
		-0.7452529072761536,
		0.0,
		-0.6667819023132324],
		"scale":[1.0,
		1.0,
		1.0],
		"children":[3]
	},
	{
		"name":"Platonic.4",
		"mesh":0
	},
	{
		"name":"Platonic.3",
		"translation":[-61.14167022705078,
		-20.03196907043457,
		-50.4460334777832],
		"rotation":[0.0,
		-0.7452529072761536,
		0.0,
		-0.6667819023132324],
		"scale":[1.0,
		1.0,
		1.0],
		"children":[5]
	},
	{
		"name":"Platonic.3",
		"mesh":1
	},
	{
		"name":"Platonic.2",
		"translation":[129.9921417236328,
		-75.33348083496094,
		-194.802978515625],
		"rotation":[0.0,
		-0.28938937187194826,
		0.0,
		-0.9572114944458008],
		"scale":[1.0,
		1.0,
		1.0],
		"children":[7]
	},
	{
		"name":"Platonic.2",
		"mesh":2
	},
	{
		"name":"Platonic.1",
		"translation":[-0.15097728371620179,
		55.524105072021487,
		201.0535430908203],
		"rotation":[0.0,
		-0.28938937187194826,
		0.0,
		-0.9572114944458008],
		"scale":[1.0,
		1.0,
		1.0],
		"children":[9]
	},
	{
		"name":"Platonic.1",
		"mesh":3
	},
	{
		"name":"Platonic",
		"translation":[-19.444307327270509,
		404.07012939453127,
		60.811561584472659],
		"rotation":[0.0,
		0.0,
		0.0,
		-1.0],
		"scale":[1.0,
		1.0,
		1.0],
		"children":[11]
	},
	{
		"name":"Platonic",
		"mesh":4
	},
	{
		"name":"Cylinder",
		"translation":[11.886480331420899,
		-514.1839599609375,
		33.829933166503909],
		"rotation":[0.0,
		0.0,
		0.0,
		-1.0],
		"scale":[1.0,
		1.0,
		1.0],
		"mesh":5
	}],
	"meshes":[{
		"name":"Platonic.4",
		"primitives":[{
			"attributes":{
				"POSITION":7,
				"NORMAL":8,
				"TEXCOORD_0":9
			},
			"indices":6,
			"material":0
		}]
	},
	{
		"name":"Platonic.3",
		"primitives":[{
			"attributes":{
				"POSITION":11,
				"NORMAL":12,
				"TEXCOORD_0":13
			},
			"indices":10,
			"material":0
		}]
	},
	{
		"name":"Platonic.2",
		"primitives":[{
			"attributes":{
				"POSITION":15,
				"NORMAL":16,
				"TEXCOORD_0":17
			},
			"indices":14,
			"material":0
		}]
	},
	{
		"name":"Platonic.1",
		"primitives":[{
			"attributes":{
				"POSITION":19,
				"NORMAL":20,
				"TEXCOORD_0":21
			},
			"indices":18,
			"material":0
		}]
	},
	{
		"name":"Platonic",
		"primitives":[{
			"attributes":{
				"POSITION":23,
				"NORMAL":24,
				"TEXCOORD_0":25
			},
			"indices":22,
			"material":0
		}]
	},
	{
		"name":"Cylinder",
		"primitives":[{
			"attributes":{
				"POSITION":27,
				"TEXCOORD_0":28
			},
			"indices":26,
			"material":1
		}]
	}],
	"accessors":[{
		"bufferView":0,
		"type":"SCALAR",
		"componentType":5126,
		"count":5,
		"byteOffset":0,
		"min":[0.0],
		"max":[4.0]
	},
	{
		"bufferView":0,
		"type":"VEC3",
		"componentType":5126,
		"count":5,
		"byteOffset":20,
		"min":[-182.4340057373047,
		37.79918670654297,
		421.4496765136719],
		"max":[-182.4340057373047,
		37.79918670654297,
		421.4496765136719]
	},
	{
		"bufferView":1,
		"type":"SCALAR",
		"componentType":5126,
		"count":5,
		"byteOffset":0,
		"min":[0.0],
		"max":[4.0]
	},
	{
		"bufferView":1,
		"type":"VEC4",
		"componentType":5126,
		"count":5,
		"byteOffset":20,
		"min":[-0.015674615278840066,
		0.7068488001823425,
		-0.015718353912234308,
		-0.7060548067092896],
		"max":[0.04181208834052086,
		0.7080249786376953,
		0.041928764432668689,
		-0.7048819065093994]
	},
	{
		"bufferView":2,
		"type":"SCALAR",
		"componentType":5126,
		"count":5,
		"byteOffset":0,
		"min":[0.0],
		"max":[4.0]
	},
	{
		"bufferView":2,
		"type":"VEC3",
		"componentType":5126,
		"count":5,
		"byteOffset":20,
		"min":[1.0,
		1.0,
		1.0],
		"max":[1.0,
		1.0,
		1.0]
	},
	{
		"bufferView":3,
		"type":"SCALAR",
		"componentType":5123,
		"count":348,
		"byteOffset":0,
		"min":[0],
		"max":[147]
	},
	{
		"bufferView":4,
		"type":"VEC3",
		"componentType":5126,
		"count":148,
		"byteOffset":0,
		"min":[-70.9215087890625,
		-43.43943786621094,
		-70.25443267822266],
		"max":[69.31566619873047,
		26.648393630981447,
		74.23228454589844]
	},
	{
		"bufferView":4,
		"type":"VEC3",
		"componentType":5126,
		"count":148,
		"byteOffset":12,
		"min":[-0.846499502658844,
		-0.9994463920593262,
		-0.9999459385871887],
		"max":[0.8507543206214905,
		0.9733070135116577,
		0.9993110299110413]
	},
	{
		"bufferView":4,
		"type":"VEC2",
		"componentType":5126,
		"count":148,
		"byteOffset":24,
		"min":[0.003000000026077032,
		0.004999999888241291],
		"max":[0.9929999709129334,
		0.9989999532699585]
	},
	{
		"bufferView":5,
		"type":"SCALAR",
		"componentType":5123,
		"count":348,
		"byteOffset":0,
		"min":[0],
		"max":[128]
	},
	{
		"bufferView":6,
		"type":"VEC3",
		"componentType":5126,
		"count":129,
		"byteOffset":0,
		"min":[-73.90497589111328,
		-36.078128814697269,
		-90.3858642578125],
		"max":[71.77263641357422,
		17.773426055908204,
		95.87510681152344]
	},
	{
		"bufferView":6,
		"type":"VEC3",
		"componentType":5126,
		"count":129,
		"byteOffset":12,
		"min":[-0.7081612944602966,
		-0.9998685121536255,
		-0.9998877048492432],
		"max":[0.8416662812232971,
		0.9959098100662231,
		0.9977265000343323]
	},
	{
		"bufferView":6,
		"type":"VEC2",
		"componentType":5126,
		"count":129,
		"byteOffset":24,
		"min":[0.003000000026077032,
		0.004999999888241291],
		"max":[0.9929999709129334,
		0.9989999532699585]
	},
	{
		"bufferView":7,
		"type":"SCALAR",
		"componentType":5123,
		"count":348,
		"byteOffset":0,
		"min":[0],
		"max":[128]
	},
	{
		"bufferView":8,
		"type":"VEC3",
		"componentType":5126,
		"count":129,
		"byteOffset":0,
		"min":[-73.90497589111328,
		-36.078128814697269,
		-90.3858642578125],
		"max":[71.77263641357422,
		17.773426055908204,
		95.87510681152344]
	},
	{
		"bufferView":8,
		"type":"VEC3",
		"componentType":5126,
		"count":129,
		"byteOffset":12,
		"min":[-0.7081612944602966,
		-0.9998685121536255,
		-0.9998877048492432],
		"max":[0.8416662812232971,
		0.9959098100662231,
		0.9977265000343323]
	},
	{
		"bufferView":8,
		"type":"VEC2",
		"componentType":5126,
		"count":129,
		"byteOffset":24,
		"min":[0.003000000026077032,
		0.004999999888241291],
		"max":[0.9929999709129334,
		0.9989999532699585]
	},
	{
		"bufferView":9,
		"type":"SCALAR",
		"componentType":5123,
		"count":348,
		"byteOffset":0,
		"min":[0],
		"max":[136]
	},
	{
		"bufferView":10,
		"type":"VEC3",
		"componentType":5126,
		"count":137,
		"byteOffset":0,
		"min":[-125.42627716064453,
		-54.77867126464844,
		-104.27953338623047],
		"max":[122.89485931396485,
		31.942623138427736,
		109.81632995605469]
	},
	{
		"bufferView":10,
		"type":"VEC3",
		"componentType":5126,
		"count":137,
		"byteOffset":12,
		"min":[-0.6793453693389893,
		-0.9999926090240479,
		-0.9998881816864014],
		"max":[0.794404923915863,
		0.991356372833252,
		0.9986929297447205]
	},
	{
		"bufferView":10,
		"type":"VEC2",
		"componentType":5126,
		"count":137,
		"byteOffset":24,
		"min":[0.003000000026077032,
		0.004999999888241291],
		"max":[0.9929999709129334,
		0.9989999532699585]
	},
	{
		"bufferView":11,
		"type":"SCALAR",
		"componentType":5123,
		"count":348,
		"byteOffset":0,
		"min":[0],
		"max":[149]
	},
	{
		"bufferView":12,
		"type":"VEC3",
		"componentType":5126,
		"count":150,
		"byteOffset":0,
		"min":[-248.4971923828125,
		-177.5768585205078,
		-349.56512451171877],
		"max":[239.87350463867188,
		108.49677276611328,
		371.36370849609377]
	},
	{
		"bufferView":12,
		"type":"VEC3",
		"componentType":5126,
		"count":150,
		"byteOffset":12,
		"min":[-0.8716961741447449,
		-0.9970253109931946,
		-0.9998739361763],
		"max":[0.9230640530586243,
		0.9782994985580444,
		0.9952809810638428]
	},
	{
		"bufferView":12,
		"type":"VEC2",
		"componentType":5126,
		"count":150,
		"byteOffset":24,
		"min":[0.003000000026077032,
		0.004999999888241291],
		"max":[0.9929999709129334,
		0.9989999532699585]
	},
	{
		"bufferView":13,
		"type":"SCALAR",
		"componentType":5123,
		"count":1506,
		"byteOffset":0,
		"min":[0],
		"max":[277]
	},
	{
		"bufferView":14,
		"type":"VEC3",
		"componentType":5126,
		"count":278,
		"byteOffset":0,
		"min":[-79.62646484375,
		-101.09783172607422,
		-235.81907653808595],
		"max":[132.5743408203125,
		762.611328125,
		135.3885040283203]
	},
	{
		"bufferView":14,
		"type":"VEC2",
		"componentType":5126,
		"count":278,
		"byteOffset":12,
		"min":[0.0,
		0.0],
		"max":[1.0,
		1.0]
	}],
	"bufferViews":[{
		"buffer":0,
		"byteOffset":0,
		"byteLength":80
	},
	{
		"buffer":0,
		"byteOffset":80,
		"byteLength":100
	},
	{
		"buffer":0,
		"byteOffset":180,
		"byteLength":80
	},
	{
		"buffer":1,
		"byteOffset":0,
		"byteLength":696,
		"target":34963
	},
	{
		"buffer":1,
		"byteOffset":696,
		"byteLength":4736,
		"target":34962,
		"byteStride":32
	},
	{
		"buffer":2,
		"byteOffset":0,
		"byteLength":696,
		"target":34963
	},
	{
		"buffer":2,
		"byteOffset":696,
		"byteLength":4128,
		"target":34962,
		"byteStride":32
	},
	{
		"buffer":3,
		"byteOffset":0,
		"byteLength":696,
		"target":34963
	},
	{
		"buffer":3,
		"byteOffset":696,
		"byteLength":4128,
		"target":34962,
		"byteStride":32
	},
	{
		"buffer":4,
		"byteOffset":0,
		"byteLength":696,
		"target":34963
	},
	{
		"buffer":4,
		"byteOffset":696,
		"byteLength":4384,
		"target":34962,
		"byteStride":32
	},
	{
		"buffer":5,
		"byteOffset":0,
		"byteLength":696,
		"target":34963
	},
	{
		"buffer":5,
		"byteOffset":696,
		"byteLength":4800,
		"target":34962,
		"byteStride":32
	},
	{
		"buffer":6,
		"byteOffset":0,
		"byteLength":3012,
		"target":34963
	},
	{
		"buffer":6,
		"byteOffset":3012,
		"byteLength":5560,
		"target":34962,
		"byteStride":20
	}],
	"buffers":[{
		"uri":"data:application/octet-stream;base64,",
		"byteLength":260
	},
	{
		"uri":"data:application/octet-stream;base64,",
		"byteLength":5432
	},
	{
		"uri":"data:application/octet-stream;base64,",
		"byteLength":4824
	},
	{
		"uri":"data:application/octet-stream;base64,",
		"byteLength":4824
	},
	{
		"uri":"data:application/octet-stream;base64,",
		"byteLength":5080
	},
	{
		"uri":"data:application/octet-stream;base64,",
		"byteLength":5496
	},
	{
		"uri":"data:application/octet-stream;base64,",
		"byteLength":8572
	}],
	"materials":[{
		"pbrMetallicRoughness":{
			"baseColorFactor":[0.618,
			0.8,
			0.07199999999999998,
			1.0],
			"metallicFactor":0.0,
			"roughnessFactor":0.5
		},
		"emissiveFactor":[0.0,
		0.0,
		0.0],
		"alphaMode":"OPAQUE",
		"doubleSided":true,
		"name":"Mat.1"
	},
	{
		"pbrMetallicRoughness":{
			"baseColorFactor":[0.5700000000000001,
			0.3570100000000001,
			0.2337000000000001,
			1.0],
			"metallicFactor":0.0,
			"roughnessFactor":0.5
		},
		"emissiveFactor":[0.0,
		0.0,
		0.0],
		"alphaMode":"OPAQUE",
		"doubleSided":true,
		"name":"Mat.4"
	}],
	"animations":[{
		"samplers":[{
			"input":0,
			"interpolation":"LINEAR",
			"output":1
		},
		{
			"input":2,
			"interpolation":"LINEAR",
			"output":3
		},
		{
			"input":4,
			"interpolation":"LINEAR",
			"output":5
		}],
		"channels":[{
			"sampler":0,
			"target":{
				"node":0,
				"path":"translation"
			}
		},
		{
			"sampler":1,
			"target":{
				"node":0,
				"path":"rotation"
			}
		},
		{
			"sampler":2,
			"target":{
				"node":0,
				"path":"scale"
			}
		}]
	}]
}